<mxfile host="app.diagrams.net" modified="2020-12-17T07:47:50.116Z" agent="5.0 (Windows NT 10.0; Win64; x64) AppleWebKit/537.36 (KHTML, like Gecko) Chrome/87.0.4280.88 Safari/537.36" etag="SEjrZ3r0-rc5fIDns3o7" version="14.0.4" type="github">
  <diagram id="5E1q23cz6auayCa_ditZ" name="Page-1">
    <mxGraphModel dx="3747" dy="1340" grid="1" gridSize="10" guides="1" tooltips="1" connect="1" arrows="1" fold="1" page="1" pageScale="1" pageWidth="827" pageHeight="1169" math="0" shadow="0">
      <root>
        <mxCell id="0" />
        <mxCell id="1" parent="0" />
        <mxCell id="SMWHvadYAqGaT5W7-3_Q-1" value="" style="whiteSpace=wrap;html=1;aspect=fixed;shadow=1;fillColor=#FFE45E;strokeColor=#FF6392;fontColor=#5AA9E6;" parent="1" vertex="1">
          <mxGeometry x="60" y="30" width="170" height="170" as="geometry" />
        </mxCell>
        <mxCell id="SMWHvadYAqGaT5W7-3_Q-2" value="" style="ellipse;whiteSpace=wrap;html=1;aspect=fixed;shadow=1;fillColor=#FFE45E;strokeColor=#FF6392;fontColor=#5AA9E6;" parent="1" vertex="1">
          <mxGeometry x="-100" y="77.5" width="80" height="80" as="geometry" />
        </mxCell>
        <mxCell id="SMWHvadYAqGaT5W7-3_Q-6" value="" style="rounded=0;whiteSpace=wrap;html=1;shadow=1;rotation=-90;fillColor=#FFE45E;strokeColor=#FF6392;fontColor=#5AA9E6;" parent="1" vertex="1">
          <mxGeometry x="160" y="140" width="400" height="180" as="geometry" />
        </mxCell>
        <mxCell id="SMWHvadYAqGaT5W7-3_Q-7" value="&lt;h1&gt;Heading&lt;/h1&gt;&lt;p&gt;Lorem ipsum dolor sit amet, consectetur adipisicing elit, sed do eiusmod tempor incididunt ut labore et dolore magna aliqua.&lt;/p&gt;" style="text;html=1;strokeColor=none;fillColor=none;spacing=5;spacingTop=-20;whiteSpace=wrap;overflow=hidden;rounded=0;shadow=1;fontColor=#5AA9E6;" parent="1" vertex="1">
          <mxGeometry x="270" y="50" width="180" height="135" as="geometry" />
        </mxCell>
        <mxCell id="SMWHvadYAqGaT5W7-3_Q-8" value="Actor" style="shape=umlActor;verticalLabelPosition=bottom;verticalAlign=top;html=1;outlineConnect=0;shadow=0;fillColor=#FFE45E;strokeColor=#FF6392;fontColor=#5AA9E6;" parent="1" vertex="1">
          <mxGeometry x="399" y="230" width="30" height="60" as="geometry" />
        </mxCell>
        <mxCell id="SMWHvadYAqGaT5W7-3_Q-9" value="" style="shape=note;whiteSpace=wrap;html=1;backgroundOutline=1;darkOpacity=0.05;shadow=0;fillColor=#FFE45E;strokeColor=#FF6392;fontColor=#5AA9E6;" parent="1" vertex="1">
          <mxGeometry x="290" y="200" width="80" height="100" as="geometry" />
        </mxCell>
        <mxCell id="SMWHvadYAqGaT5W7-3_Q-10" value="" style="curved=1;endArrow=classic;html=1;strokeColor=#FF6392;fontColor=#5AA9E6;" parent="1" edge="1">
          <mxGeometry width="50" height="50" relative="1" as="geometry">
            <mxPoint x="380" y="270" as="sourcePoint" />
            <mxPoint x="430" y="220" as="targetPoint" />
            <Array as="points">
              <mxPoint x="430" y="270" />
              <mxPoint x="380" y="220" />
            </Array>
          </mxGeometry>
        </mxCell>
        <mxCell id="SMWHvadYAqGaT5W7-3_Q-11" value="" style="curved=1;endArrow=classic;html=1;exitX=0.725;exitY=1.041;exitDx=0;exitDy=0;exitPerimeter=0;entryX=0.465;entryY=-0.027;entryDx=0;entryDy=0;entryPerimeter=0;strokeColor=#FF6392;fontColor=#5AA9E6;" parent="1" source="SMWHvadYAqGaT5W7-3_Q-1" target="SMWHvadYAqGaT5W7-3_Q-6" edge="1">
          <mxGeometry width="50" height="50" relative="1" as="geometry">
            <mxPoint x="180" y="290" as="sourcePoint" />
            <mxPoint x="230" y="240" as="targetPoint" />
            <Array as="points">
              <mxPoint x="240" y="220" />
              <mxPoint x="180" y="240" />
            </Array>
          </mxGeometry>
        </mxCell>
      </root>
    </mxGraphModel>
  </diagram>
</mxfile>
